<?xml version="1.0" encoding="UTF-8" standalone="no"?>
<svg
   width="128"
   height="128"
   viewBox="0 0 128 128"
   version="1.1"
   id="svg2"
   xmlns="http://www.w3.org/2000/svg"
   xmlns:svg="http://www.w3.org/2000/svg">
  <defs
     id="defs2" />
  <title
     id="title1">HEADPHONES</title>
  <rect
     style="fill:#000000"
     id="rect2"
     width="128"
     height="128"
     x="0"
     y="0"
     ry="16.036118" />
  <g
     id="g2">
    <path
       d="m 122.229,76.7 -4.223,-1.356 v -6.16 a 53.775,53.775 0 0 0 -13.638,-35.823 1.724,1.724 0 0 0 -0.253,-0.33 c -0.035,-0.034 -0.075,-0.059 -0.111,-0.09 a 53.926,53.926 0 0 0 -80.008,0 c -0.036,0.031 -0.076,0.056 -0.111,0.09 a 1.724,1.724 0 0 0 -0.253,0.33 53.775,53.775 0 0 0 -13.638,35.823 v 6.158 L 5.771,76.7 a 1.75,1.75 0 0 0 -1.214,1.666 v 24.219 a 1.75,1.75 0 0 0 1.214,1.666 l 9.66,3.1 v 3.721 a 1.751,1.751 0 0 0 1.75,1.75 h 11.325 a 7.759,7.759 0 0 0 7.75,-7.75 v -29.2 a 7.759,7.759 0 0 0 -7.75,-7.75 H 17.181 a 1.75,1.75 0 0 0 -1.75,1.75 v 3.719 l -1.937,0.623 v -5.03 a 50.27,50.27 0 0 1 11.739,-32.33 l 0.308,0.307 a 7.7,7.7 0 0 0 5.465,2.252 7.8,7.8 0 0 0 5.159,-1.943 42.2,42.2 0 0 1 55.669,0 7.787,7.787 0 0 0 10.625,-0.309 l 0.308,-0.307 a 50.27,50.27 0 0 1 11.739,32.33 v 5.033 l -1.937,-0.623 v -3.719 a 1.75,1.75 0 0 0 -1.75,-1.75 H 99.494 a 7.759,7.759 0 0 0 -7.75,7.75 v 29.2 a 7.759,7.759 0 0 0 7.75,7.75 h 11.325 a 1.751,1.751 0 0 0 1.75,-1.75 v -3.721 l 9.66,-3.1 a 1.75,1.75 0 0 0 1.214,-1.666 V 78.364 A 1.75,1.75 0 0 0 122.229,76.7 Z m -103.3,-5.073 h 9.575 a 4.255,4.255 0 0 1 4.25,4.25 v 29.2 a 4.255,4.255 0 0 1 -4.25,4.25 h -9.573 z m -3.5,32.051 -7.374,-2.369 V 79.64 L 9.992,79.018 V 90.46 a 1.749,1.749 0 0 0 1.745,1.75 l 3.692,0.009 z m 0,-26.406 V 88.719 H 13.492 V 77.893 Z M 99.985,34.687 a 4.28,4.28 0 0 1 -5.84,0.153 45.7,45.7 0 0 0 -60.29,0 4.282,4.282 0 0 1 -5.84,-0.154 l -0.438,-0.438 a 50.383,50.383 0 0 1 72.846,0 z m 9.084,74.636 h -9.575 a 4.255,4.255 0 0 1 -4.25,-4.25 v -29.2 a 4.255,4.255 0 0 1 4.25,-4.25 h 9.575 z m 3.5,-32.053 1.937,0.623 v 10.831 h -1.937 z m 7.374,24.037 -7.374,2.369 V 92.224 h 3.687 a 1.75,1.75 0 0 0 1.75,-1.75 V 79.018 l 1.937,0.622 z"
       fill="#241c49"
       stroke="#0a2119"
       stroke-miterlimit="10"
       id="path1"
       style="fill:#c2ac00;fill-opacity:1;stroke:none;stroke-opacity:1" />
    <path
       d="m 84.085,88.724 h -8.2 A 1.749,1.749 0 0 0 74.2,89.989 L 69.94,104.757 59.741,69.39 a 1.75,1.75 0 0 0 -3.363,0 L 50.8,88.724 h -6.885 a 1.75,1.75 0 0 0 0,3.5 h 8.2 A 1.75,1.75 0 0 0 53.8,90.958 l 4.26,-14.768 10.2,35.367 a 1.75,1.75 0 0 0 3.363,0 L 77.2,92.224 h 6.887 a 1.75,1.75 0 0 0 0,-3.5 z"
       fill="#241c49"
       stroke="#0a2119"
       stroke-miterlimit="10"
       id="path2"
       style="fill:#c2ac00;fill-opacity:1;stroke:none" />
  </g>
</svg>
