<svg xmlns="http://www.w3.org/2000/svg" width="128" height="128" viewBox="0 0 128 128">
  <title>HEADPHONES</title>
  <g>
    <path d="M122.229,76.7l-4.223-1.356V69.184a53.775,53.775,0,0,0-13.638-35.823,1.724,1.724,0,0,0-.253-.33c-.035-.034-.075-.059-.111-.09a53.926,53.926,0,0,0-80.008,0c-.036.031-.076.056-.111.09a1.724,1.724,0,0,0-.253.33A53.775,53.775,0,0,0,9.994,69.184v6.158L5.771,76.7a1.75,1.75,0,0,0-1.214,1.666v24.219a1.75,1.75,0,0,0,1.214,1.666l9.66,3.1v3.721a1.751,1.751,0,0,0,1.75,1.75H28.506a7.759,7.759,0,0,0,7.75-7.75v-29.2a7.759,7.759,0,0,0-7.75-7.75H17.181a1.75,1.75,0,0,0-1.75,1.75v3.719l-1.937.623V69.184a50.27,50.27,0,0,1,11.739-32.33l.308.307a7.7,7.7,0,0,0,5.465,2.252,7.8,7.8,0,0,0,5.159-1.943,42.2,42.2,0,0,1,55.669,0,7.787,7.787,0,0,0,10.625-.309l.308-.307a50.27,50.27,0,0,1,11.739,32.33v5.033l-1.937-.623V69.875a1.75,1.75,0,0,0-1.75-1.75H99.494a7.759,7.759,0,0,0-7.75,7.75v29.2a7.759,7.759,0,0,0,7.75,7.75h11.325a1.751,1.751,0,0,0,1.75-1.75v-3.721l9.66-3.1a1.75,1.75,0,0,0,1.214-1.666V78.364A1.75,1.75,0,0,0,122.229,76.7Zm-103.3-5.073h9.575a4.255,4.255,0,0,1,4.25,4.25v29.2a4.255,4.255,0,0,1-4.25,4.25H18.931Zm-3.5,32.051-7.374-2.369V79.64l1.937-.622V90.46a1.749,1.749,0,0,0,1.745,1.75l3.692.009Zm0-26.406V88.719l-1.937,0V77.893ZM99.985,34.687a4.28,4.28,0,0,1-5.84.153,45.7,45.7,0,0,0-60.29,0,4.282,4.282,0,0,1-5.84-.154l-.438-.438a50.383,50.383,0,0,1,72.846,0Zm9.084,74.636H99.494a4.255,4.255,0,0,1-4.25-4.25v-29.2a4.255,4.255,0,0,1,4.25-4.25h9.575Zm3.5-32.053,1.937.623V88.724h-1.937Zm7.374,24.037-7.374,2.369V92.224h3.687a1.75,1.75,0,0,0,1.75-1.75V79.018l1.937.622Z" fill="#241c49" stroke="#0a2119" stroke-miterlimit="10"/>
    <path d="M84.085,88.724h-8.2A1.749,1.749,0,0,0,74.2,89.989l-4.26,14.768L59.741,69.39a1.75,1.75,0,0,0-3.363,0L50.8,88.724H43.915a1.75,1.75,0,0,0,0,3.5h8.2A1.75,1.75,0,0,0,53.8,90.958L58.06,76.19l10.2,35.367a1.75,1.75,0,0,0,3.363,0L77.2,92.224h6.887a1.75,1.75,0,0,0,0-3.5Z" fill="#241c49" stroke="#0a2119" stroke-miterlimit="10"/>
  </g>
</svg>
